<?xml version="1.0" encoding="utf-8"?>
<!-- Generator: Adobe Illustrator 23.0.0, SVG Export Plug-In . SVG Version: 6.00 Build 0)  -->
<svg version="1.1" id="Calque_1" xmlns="http://www.w3.org/2000/svg" xmlns:xlink="http://www.w3.org/1999/xlink" x="0px" y="0px"
	 viewBox="0 0 122.88 147.46" style="enable-background:new 0 0 122.88 147.46;" xml:space="preserve">
<style type="text/css">
	.st0{fill:#EC6668;}
</style>
<g>
	<g>
		<g>
			<path class="st0" d="M121.99,26.65c-0.92-3.46-1.54-5.38-1.54-5.38c-1-3.57-3.53-3.57-7.3-4.19l-20.39-2.57
				c-2.53-0.42-2.53-0.42-3.53-2.61C85.89,4.37,84.85,0,81.2,0H41.65C38,0,37,4.38,33.66,11.94c-1,2.15-1,2.15-3.53,2.61L9.7,17.12
				c-3.73,0.61-6.41,0.96-7.41,4.53c0,0-0.46,1.57-1.42,4.99c-1.23,4.57-1.73,4.07,2.5,4.07H119.5
				C123.72,30.76,123.26,31.22,121.99,26.65z"/>
			<path class="st0" d="M108.81,43.01H14.07c-6.37,0-6.68,0.84-6.3,5.64l7.18,93.13c0.61,4.72,1.07,5.68,6.72,5.68h79.54
				c5.64,0,6.1-0.96,6.72-5.68l7.18-93.13C115.48,43.82,115.18,43.01,108.81,43.01z"/>
		</g>
	</g>
</g>
</svg>
