<?xml version="1.0" encoding="utf-8"?>
<!-- Generator: Adobe Illustrator 23.0.0, SVG Export Plug-In . SVG Version: 6.00 Build 0)  -->
<svg version="1.1" id="Calque_1" xmlns="http://www.w3.org/2000/svg" xmlns:xlink="http://www.w3.org/1999/xlink" x="0px" y="0px"
	 viewBox="0 0 174.05 129.91" style="enable-background:new 0 0 174.05 129.91;" xml:space="preserve">
<style type="text/css">
	.st0{fill:#FFFFFF;}
</style>
<g>
	<g>
		<g>
			<path class="st0" d="M88.03,15.85C56.58,15.85,32.08,34.59,2.01,65c25.88,26,47.62,49.15,86.02,49.15
				c38.36,0,66.59-29.34,86.02-48.62C154.16,42.97,125.98,15.85,88.03,15.85z M88.03,100.07c-18.97,0-34.41-15.74-34.41-35.06
				c0-19.35,15.44-35.06,34.41-35.06s34.41,15.74,34.41,35.06C122.44,84.36,107,100.07,88.03,100.07z"/>
			<g>
				<path class="st0" d="M88.03,52.72c0-3.03,1.11-5.8,2.92-7.95c-0.96-0.15-1.92-0.23-2.92-0.23c-11.06,0-20.08,9.18-20.08,20.47
					s9.02,20.47,20.08,20.47s20.08-9.18,20.08-20.47c0-0.88-0.08-1.77-0.15-2.65c-2.11,1.65-4.72,2.65-7.6,2.65
					C93.53,65.01,88.03,59.52,88.03,52.72z"/>
			</g>
		</g>
	</g>
</g>
</svg>
